<?xml version="1.0" encoding="UTF-8"?>
<!DOCTYPE svg PUBLIC "-//W3C//DTD SVG 1.1//EN" "http://www.w3.org/Graphics/SVG/1.1/DTD/svg11.dtd">
<svg xmlns="http://www.w3.org/2000/svg" version="1.1" width="200px" height="200px" style="shape-rendering:geometricPrecision; text-rendering:geometricPrecision; image-rendering:optimizeQuality; fill-rule:evenodd; clip-rule:evenodd" xmlns:xlink="http://www.w3.org/1999/xlink">
<g><path style="opacity:0.3" fill="#d3e4bd" d="M 181.5,27.5 C 181.167,27.5 180.833,27.5 180.5,27.5C 125.167,27.5 69.8333,27.5 14.5,27.5C 15.3121,26.0069 16.6455,25.3402 18.5,25.5C 72.9863,26.1542 127.32,26.8209 181.5,27.5 Z"/></g>
<g><path style="opacity:0.999" fill="#89c342" d="M 13.5,28.5 C 68.1667,28.5 122.833,28.5 177.5,28.5C 177.737,29.791 177.404,30.791 176.5,31.5C 122.5,31.5 68.5,31.5 14.5,31.5C 14.1667,31.5 13.8333,31.5 13.5,31.5C 13.5,30.5 13.5,29.5 13.5,28.5 Z"/></g>
<g><path style="opacity:1" fill="#8bbe49" d="M 12.5,30.5 C 12.1724,74.2389 12.5057,117.906 13.5,161.5C 13.1667,161.5 12.8333,161.5 12.5,161.5C 11.8333,161.5 11.5,161.167 11.5,160.5C 11.5,117.833 11.5,75.1667 11.5,32.5C 11.3284,31.5084 11.6618,30.8417 12.5,30.5 Z"/></g>
<g><path style="opacity:1" fill="#a1ca6e" d="M 11.5,32.5 C 11.5,75.1667 11.5,117.833 11.5,160.5C 10.5013,118.67 10.168,76.67 10.5,34.5C 7.74165,33.0335 8.07498,32.3668 11.5,32.5 Z"/></g>
<g><path style="opacity:1" fill="#8dc444" d="M 13.5,28.5 C 13.5,29.5 13.5,30.5 13.5,31.5C 12.8388,74.1798 13.5054,116.513 15.5,158.5C 15.5,159.167 15.5,159.833 15.5,160.5C 15.5,160.833 15.5,161.167 15.5,161.5C 14.8333,161.5 14.1667,161.5 13.5,161.5C 12.5057,117.906 12.1724,74.2389 12.5,30.5C 12.3284,29.5084 12.6618,28.8417 13.5,28.5 Z"/></g>
<g><path style="opacity:1" fill="#8cc044" d="M 13.5,31.5 C 13.8333,31.5 14.1667,31.5 14.5,31.5C 14.168,73.67 14.5013,115.67 15.5,157.5C 15.5,157.833 15.5,158.167 15.5,158.5C 13.5054,116.513 12.8388,74.1798 13.5,31.5 Z"/></g>
<g><path style="opacity:1" fill="#8bc147" d="M 177.5,28.5 C 179.495,70.1534 180.161,112.153 179.5,154.5C 179.5,156.833 179.5,159.167 179.5,161.5C 124.833,161.5 70.1667,161.5 15.5,161.5C 15.5,161.167 15.5,160.833 15.5,160.5C 69.0026,160.832 122.336,160.499 175.5,159.5C 175.833,158.833 176.167,158.167 176.5,157.5C 176.5,115.5 176.5,73.5 176.5,31.5C 177.404,30.791 177.737,29.791 177.5,28.5 Z"/></g>
<g><path style="opacity:1" fill="#a0cb6a" d="M 13.5,28.5 C 13.5,27.8333 13.8333,27.5 14.5,27.5C 69.8333,27.5 125.167,27.5 180.5,27.5C 180.5,69.8333 180.5,112.167 180.5,154.5C 180.167,154.5 179.833,154.5 179.5,154.5C 180.161,112.153 179.495,70.1534 177.5,28.5C 122.833,28.5 68.1667,28.5 13.5,28.5 Z"/></g>
<g><path style="opacity:0.258" fill="#d0ebb2" d="M 10.5,34.5 C 10.168,76.67 10.5013,118.67 11.5,160.5C 11.5,161.167 11.8333,161.5 12.5,161.5C 12.5,162.167 12.8333,162.5 13.5,162.5C 13.5,162.833 13.5,163.167 13.5,163.5C 12.1667,163.5 10.8333,163.5 9.5,163.5C 9.16798,120.33 9.50131,77.3301 10.5,34.5 Z"/></g>
<g><path style="opacity:0.739" fill="#add27b" d="M 14.5,31.5 C 68.5,31.5 122.5,31.5 176.5,31.5C 176.5,73.5 176.5,115.5 176.5,157.5C 176.167,157.5 175.833,157.5 175.5,157.5C 175.5,115.833 175.5,74.1667 175.5,32.5C 122.167,32.5 68.8333,32.5 15.5,32.5C 15.5,74.1667 15.5,115.833 15.5,157.5C 14.5013,115.67 14.168,73.67 14.5,31.5 Z M 175.5,157.5 C 175.167,157.5 174.833,157.5 174.5,157.5C 121.598,157.497 68.5976,157.497 15.5,157.5C 15.5,115.833 15.5,74.1667 15.5,32.5C 68.8333,32.5 122.167,32.5 175.5,32.5C 175.5,74.1667 175.5,115.833 175.5,157.5 Z M 50.5,62.5 C 50.8333,62.5 51.1667,62.5 51.5,62.5C 58.8932,62.2588 66.5598,62.5921 74.5,63.5C 76.4352,64.1495 78.4352,64.4828 80.5,64.5C 83.0352,66.017 85.7018,67.3503 88.5,68.5C 89.8333,70.5 91.5,72.1667 93.5,73.5C 94.604,75.3885 95.9373,77.0552 97.5,78.5C 99.0769,83.2149 100.41,87.8816 101.5,92.5C 101.657,105.857 96.3239,116.19 85.5,123.5C 83.7162,123.893 82.0495,124.559 80.5,125.5C 78.3024,125.875 76.3024,126.542 74.5,127.5C 73.8333,127.5 73.1667,127.5 72.5,127.5C 64.6484,127.825 56.9818,127.492 49.5,126.5C 49.1785,105.091 49.5118,83.7579 50.5,62.5 Z M 151.5,53.5 C 151.833,53.5 152.167,53.5 152.5,53.5C 156.41,57.7595 156.41,62.0929 152.5,66.5C 149.5,66.5 146.5,66.5 143.5,66.5C 143.5,62.1667 143.5,57.8333 143.5,53.5C 146.167,53.5 148.833,53.5 151.5,53.5 Z"/></g>
<g><path style="opacity:1" fill="#a4ca6f" d="M 110.5,65.5 C 113.164,67.4844 114.831,70.1511 115.5,73.5C 113.14,72.135 111.473,70.135 110.5,67.5C 110.5,66.8333 110.5,66.1667 110.5,65.5 Z"/></g>
<g><path style="opacity:1" fill="#8fc749" d="M 48.5,51.5 C 52.9083,51.062 54.5749,53.062 53.5,57.5C 56.8333,57.5 60.1667,57.5 63.5,57.5C 63.5,58.5 63.5,59.5 63.5,60.5C 59.2984,60.1832 55.2984,60.5166 51.5,61.5C 51.5,61.8333 51.5,62.1667 51.5,62.5C 51.1667,62.5 50.8333,62.5 50.5,62.5C 49.5084,62.3284 48.8417,62.6618 48.5,63.5C 47.5027,84.6601 47.1694,105.993 47.5,127.5C 46.5489,126.081 46.2155,124.415 46.5,122.5C 46.5,115.5 46.5,108.5 46.5,101.5C 46.8322,89.8143 46.4989,78.1477 45.5,66.5C 44.3044,66.8457 44.3044,67.3457 45.5,68C 44.5,68.8333 43.5,69.6667 42.5,70.5C 43.5748,73.438 43.7415,76.438 43,79.5C 42.3333,80.8333 41.6667,80.8333 41,79.5C 40.8333,80.5 40.6667,81.5 40.5,82.5C 42.3233,86.97 43.99,91.47 45.5,96C 45.9969,98.595 45.3302,101.095 43.5,103.5C 43.6236,104.107 43.9569,104.44 44.5,104.5C 43.9101,105.766 43.4101,107.099 43,108.5C 42.4304,105.156 41.2638,104.823 39.5,107.5C 37.4525,105.45 35.7859,103.117 34.5,100.5C 34.3796,98.8014 34.0463,97.1347 33.5,95.5C 35.0066,86.902 35.6732,78.2353 35.5,69.5C 37.7702,68.8752 38.1035,69.8752 36.5,72.5C 37.2739,73.7112 38.1072,73.7112 39,72.5C 39.6016,69.0719 40.1016,65.9053 40.5,63C 38.945,61.4173 37.7783,59.584 37,57.5C 36.6667,58.5 36.3333,59.5 36,60.5C 35.2419,58.2305 35.4086,56.0639 36.5,54C 35.7069,52.9148 35.0402,51.7481 34.5,50.5C 36.4213,49.359 38.4213,49.1923 40.5,50C 41.9733,50.7096 42.6399,51.8762 42.5,53.5C 44.8984,53.7406 46.8984,53.0739 48.5,51.5 Z"/></g>
<g><path style="opacity:1" fill="#bdd697" d="M 161.5,52.5 C 165.696,58.9 165.03,64.9 159.5,70.5C 159.5,69.8333 159.5,69.1667 159.5,68.5C 162.493,64.2172 163.16,59.5505 161.5,54.5C 161.5,53.8333 161.5,53.1667 161.5,52.5 Z"/></g>
<g><path style="opacity:1" fill="#8bc541" d="M 91.5,63.5 C 92.1667,63.8333 92.8333,64.1667 93.5,64.5C 93.8417,65.3382 94.5084,65.6716 95.5,65.5C 97.2968,68.3693 98.9635,71.3693 100.5,74.5C 99.3112,75.4287 97.9778,75.762 96.5,75.5C 96.0269,74.0937 95.0269,73.427 93.5,73.5C 92.8333,70.8333 91.1667,69.1667 88.5,68.5C 87.4726,66.8058 86.1392,65.4725 84.5,64.5C 84.3893,63.8826 84.056,63.3826 83.5,63C 79.9431,62.6982 76.6098,61.6982 73.5,60C 74.6001,58.977 75.9334,58.477 77.5,58.5C 82.0551,60.5283 86.7218,62.195 91.5,63.5 Z"/></g>
<g><path style="opacity:0.89" fill="#b4d48c" d="M 80.5,64.5 C 81.8333,64.5 83.1667,64.5 84.5,64.5C 86.1392,65.4725 87.4726,66.8058 88.5,68.5C 85.7018,67.3503 83.0352,66.017 80.5,64.5 Z"/></g>
<g><path style="opacity:1" fill="#b6d88c" d="M 95.5,59.5 C 96.8664,61.3505 98.533,61.6838 100.5,60.5C 102.055,63.004 103.722,65.3373 105.5,67.5C 103.878,68.1224 102.545,69.1224 101.5,70.5C 100.661,69.3588 99.9943,68.0255 99.5,66.5C 98.3112,65.5713 96.9778,65.238 95.5,65.5C 94.5084,65.6716 93.8417,65.3382 93.5,64.5C 95.3753,63.0492 96.042,61.3825 95.5,59.5 Z"/></g>
<g><path style="opacity:0.792" fill="#a4bd85" d="M 51.5,61.5 C 58.5079,61.3337 65.5079,61.5004 72.5,62C 73.4158,62.2784 74.0825,62.7784 74.5,63.5C 66.5598,62.5921 58.8932,62.2588 51.5,62.5C 51.5,62.1667 51.5,61.8333 51.5,61.5 Z"/></g>
<g><path style="opacity:0.718" fill="#cde5aa" d="M 103.5,57.5 C 105.167,58.5 106.5,59.8333 107.5,61.5C 105.167,61.1667 103.833,59.8333 103.5,57.5 Z"/></g>
<g><path style="opacity:1" fill="#92c64f" d="M 81.5,48.5 C 86.2293,49.8797 90.8959,51.213 95.5,52.5C 97.228,54.8774 99.5614,56.544 102.5,57.5C 102.833,57.5 103.167,57.5 103.5,57.5C 103.833,59.8333 105.167,61.1667 107.5,61.5C 109.262,62.2623 110.262,63.5956 110.5,65.5C 110.5,66.1667 110.5,66.8333 110.5,67.5C 109.448,67.3505 108.448,67.5172 107.5,68C 108.906,70.4449 110.24,72.9449 111.5,75.5C 111.043,76.2975 110.376,76.6309 109.5,76.5C 108.815,74.5856 108.315,72.5856 108,70.5C 107.292,69.6195 106.458,68.9528 105.5,68.5C 105.5,68.1667 105.5,67.8333 105.5,67.5C 103.722,65.3373 102.055,63.004 100.5,60.5C 98.533,61.6838 96.8664,61.3505 95.5,59.5C 93.4898,56.9725 90.8231,55.1392 87.5,54C 82.463,54.4077 77.463,54.2411 72.5,53.5C 72.5,54.5 72.5,55.5 72.5,56.5C 75.1873,56.3359 77.854,56.5026 80.5,57C 83.4576,59.3117 86.7909,60.8117 90.5,61.5C 90.8627,62.1835 91.1961,62.8501 91.5,63.5C 86.7218,62.195 82.0551,60.5283 77.5,58.5C 75.9334,58.477 74.6001,58.977 73.5,60C 76.6098,61.6982 79.9431,62.6982 83.5,63C 84.056,63.3826 84.3893,63.8826 84.5,64.5C 83.1667,64.5 81.8333,64.5 80.5,64.5C 78.4352,64.4828 76.4352,64.1495 74.5,63.5C 74.0825,62.7784 73.4158,62.2784 72.5,62C 65.5079,61.5004 58.5079,61.3337 51.5,61.5C 55.2984,60.5166 59.2984,60.1832 63.5,60.5C 63.5,59.5 63.5,58.5 63.5,57.5C 66.1656,57.067 68.8323,56.567 71.5,56C 70.7476,55.3292 70.4142,54.4959 70.5,53.5C 73.9085,52.0966 77.5752,51.4299 81.5,51.5C 81.5,50.5 81.5,49.5 81.5,48.5 Z"/></g>
<g><path style="opacity:1" fill="#abd573" d="M 95.5,59.5 C 96.042,61.3825 95.3753,63.0492 93.5,64.5C 92.8333,64.1667 92.1667,63.8333 91.5,63.5C 91.1961,62.8501 90.8627,62.1835 90.5,61.5C 86.7909,60.8117 83.4576,59.3117 80.5,57C 77.854,56.5026 75.1873,56.3359 72.5,56.5C 72.5,55.5 72.5,54.5 72.5,53.5C 77.463,54.2411 82.463,54.4077 87.5,54C 90.8231,55.1392 93.4898,56.9725 95.5,59.5 Z"/></g>
<g><path style="opacity:1" fill="#96cb51" d="M 70.5,53.5 C 70.4142,54.4959 70.7476,55.3292 71.5,56C 68.8323,56.567 66.1656,57.067 63.5,57.5C 60.1667,57.5 56.8333,57.5 53.5,57.5C 54.5749,53.062 52.9083,51.062 48.5,51.5C 52.3103,49.1307 56.3103,48.964 60.5,51C 58.4233,51.1922 56.4233,51.6922 54.5,52.5C 57.1062,53.6517 59.7728,53.8184 62.5,53C 62.0426,52.586 61.7093,52.086 61.5,51.5C 63.5994,49.4798 65.9327,49.1465 68.5,50.5C 67.1285,52.6198 67.7952,53.6198 70.5,53.5 Z"/></g>
<g><path style="opacity:0.786" fill="#b5d688" d="M 151.5,53.5 C 148.833,53.5 146.167,53.5 143.5,53.5C 143.5,57.8333 143.5,62.1667 143.5,66.5C 146.5,66.5 149.5,66.5 152.5,66.5C 149.375,67.4794 146.042,67.8128 142.5,67.5C 142.5,62.5 142.5,57.5 142.5,52.5C 145.927,50.8232 148.927,51.1565 151.5,53.5 Z"/></g>
<g><path style="opacity:1" fill="#b6d793" d="M 95.5,52.5 C 98.4001,53.4432 100.733,55.1099 102.5,57.5C 99.5614,56.544 97.228,54.8774 95.5,52.5 Z"/></g>
<g><path style="opacity:1" fill="#bed89a" d="M 81.5,48.5 C 81.5,48.1667 81.5,47.8333 81.5,47.5C 86.6692,47.999 91.3358,49.6657 95.5,52.5C 90.8959,51.213 86.2293,49.8797 81.5,48.5 Z"/></g>
<g><path style="opacity:1" fill="#8dc645" d="M 81.5,48.5 C 81.5,49.5 81.5,50.5 81.5,51.5C 77.5752,51.4299 73.9085,52.0966 70.5,53.5C 67.7952,53.6198 67.1285,52.6198 68.5,50.5C 65.9327,49.1465 63.5994,49.4798 61.5,51.5C 61.7093,52.086 62.0426,52.586 62.5,53C 59.7728,53.8184 57.1062,53.6517 54.5,52.5C 56.4233,51.6922 58.4233,51.1922 60.5,51C 56.3103,48.964 52.3103,49.1307 48.5,51.5C 46.8984,53.0739 44.8984,53.7406 42.5,53.5C 42.6399,51.8762 41.9733,50.7096 40.5,50C 38.4213,49.1923 36.4213,49.359 34.5,50.5C 35.0402,51.7481 35.7069,52.9148 36.5,54C 35.4086,56.0639 35.2419,58.2305 36,60.5C 36.3333,59.5 36.6667,58.5 37,57.5C 37.7783,59.584 38.945,61.4173 40.5,63C 40.1016,65.9053 39.6016,69.0719 39,72.5C 38.1072,73.7112 37.2739,73.7112 36.5,72.5C 38.1035,69.8752 37.7702,68.8752 35.5,69.5C 35.2488,67.8297 34.5822,66.3297 33.5,65C 35.0779,62.6612 34.7446,60.8278 32.5,59.5C 32.5,55.8333 32.5,52.1667 32.5,48.5C 48.8333,48.5 65.1667,48.5 81.5,48.5 Z"/></g>
<g><path style="opacity:0.957" fill="#b4d58e" d="M 136.5,46.5 C 143.196,46.391 149.863,46.7243 156.5,47.5C 157.167,47.5 157.5,47.8333 157.5,48.5C 150.847,47.9457 144.18,47.6123 137.5,47.5C 137.23,59.2044 137.564,70.8711 138.5,82.5C 139.833,82.5 141.167,82.5 142.5,82.5C 142.19,79.2869 142.523,76.2869 143.5,73.5C 143.5,73.8333 143.5,74.1667 143.5,74.5C 143.5,78.1667 143.5,81.8333 143.5,85.5C 140.881,85.7683 138.381,85.435 136,84.5C 135.173,71.6599 135.34,58.9933 136.5,46.5 Z"/></g>
<g><path style="opacity:0.816" fill="#c7daae" d="M 136.5,46.5 C 138.978,45.8359 141.645,45.5025 144.5,45.5C 148.777,45.3367 152.777,46.0033 156.5,47.5C 149.863,46.7243 143.196,46.391 136.5,46.5 Z"/></g>
<g><path style="opacity:0.368" fill="#c6dca9" d="M 32.5,46.5 C 39.3252,45.8337 46.3252,45.5003 53.5,45.5C 63.0556,45.2755 72.3889,45.9422 81.5,47.5C 65.1838,46.6305 48.8504,46.2972 32.5,46.5 Z"/></g>
<g><path style="opacity:0.788" fill="#c3e3a7" d="M 88.5,68.5 C 91.1667,69.1667 92.8333,70.8333 93.5,73.5C 91.5,72.1667 89.8333,70.5 88.5,68.5 Z"/></g>
<g><path style="opacity:1" fill="#cee5b8" d="M 105.5,67.5 C 105.5,67.8333 105.5,68.1667 105.5,68.5C 105.703,70.0443 106.37,71.3777 107.5,72.5C 104.743,73.9795 102.743,73.3128 101.5,70.5C 102.545,69.1224 103.878,68.1224 105.5,67.5 Z"/></g>
<g><path style="opacity:1" fill="#98ca59" d="M 157.5,48.5 C 159.833,48.8333 161.167,50.1667 161.5,52.5C 161.5,53.1667 161.5,53.8333 161.5,54.5C 160.883,54.3893 160.383,54.056 160,53.5C 159.678,56.6663 158.511,59.333 156.5,61.5C 156.662,59.4727 156.495,57.4727 156,55.5C 155.184,54.1772 154.017,53.5106 152.5,53.5C 152.167,53.5 151.833,53.5 151.5,53.5C 148.927,51.1565 145.927,50.8232 142.5,52.5C 143.981,50.7531 145.981,49.5864 148.5,49C 145.183,48.5017 141.85,48.335 138.5,48.5C 138.334,57.8393 138.5,67.1726 139,76.5C 139.192,74.4233 139.692,72.4233 140.5,70.5C 141.623,71.5437 142.956,72.2104 144.5,72.5C 149.435,71.0629 154.435,69.7296 159.5,68.5C 159.5,69.1667 159.5,69.8333 159.5,70.5C 158.833,70.8333 158.167,71.1667 157.5,71.5C 152.626,71.3576 147.959,72.0243 143.5,73.5C 142.523,76.2869 142.19,79.2869 142.5,82.5C 141.167,82.5 139.833,82.5 138.5,82.5C 137.564,70.8711 137.23,59.2044 137.5,47.5C 144.18,47.6123 150.847,47.9457 157.5,48.5 Z"/></g>
<g><path style="opacity:1" fill="#bed99c" d="M 157.5,71.5 C 153.167,73.5017 148.5,74.5017 143.5,74.5C 143.5,74.1667 143.5,73.8333 143.5,73.5C 147.959,72.0243 152.626,71.3576 157.5,71.5 Z"/></g>
<g><path style="opacity:1" fill="#a1c76f" d="M 32.5,46.5 C 48.8504,46.2972 65.1838,46.6305 81.5,47.5C 81.5,47.8333 81.5,48.1667 81.5,48.5C 65.1667,48.5 48.8333,48.5 32.5,48.5C 32.5,52.1667 32.5,55.8333 32.5,59.5C 32.5,81.8333 32.5,104.167 32.5,126.5C 32.5,131.833 32.5,137.167 32.5,142.5C 40.8333,142.5 49.1667,142.5 57.5,142.5C 63.5,142.5 69.5,142.5 75.5,142.5C 75.8417,143.338 76.5084,143.672 77.5,143.5C 62.0978,144.83 46.5978,144.83 31,143.5C 30.3333,111.5 30.3333,79.5 31,47.5C 31.3826,46.944 31.8826,46.6107 32.5,46.5 Z"/></g>
<g><path style="opacity:1" fill="#92c84c" d="M 142.5,52.5 C 142.5,57.5 142.5,62.5 142.5,67.5C 146.042,67.8128 149.375,67.4794 152.5,66.5C 155.297,66.0334 156.631,64.3667 156.5,61.5C 158.511,59.333 159.678,56.6663 160,53.5C 160.383,54.056 160.883,54.3893 161.5,54.5C 163.16,59.5505 162.493,64.2172 159.5,68.5C 154.435,69.7296 149.435,71.0629 144.5,72.5C 142.956,72.2104 141.623,71.5437 140.5,70.5C 139.692,72.4233 139.192,74.4233 139,76.5C 138.5,67.1726 138.334,57.8393 138.5,48.5C 141.85,48.335 145.183,48.5017 148.5,49C 145.981,49.5864 143.981,50.7531 142.5,52.5 Z M 151.5,53.5 C 151.833,53.5 152.167,53.5 152.5,53.5C 156.41,57.7595 156.41,62.0929 152.5,66.5C 149.5,66.5 146.5,66.5 143.5,66.5C 143.5,62.1667 143.5,57.8333 143.5,53.5C 146.167,53.5 148.833,53.5 151.5,53.5 Z"/></g>
<g><path style="opacity:0.51" fill="#b6d38f" d="M 152.5,53.5 C 154.017,53.5106 155.184,54.1772 156,55.5C 156.495,57.4727 156.662,59.4727 156.5,61.5C 156.631,64.3667 155.297,66.0334 152.5,66.5C 156.41,62.0929 156.41,57.7595 152.5,53.5 Z"/></g>
<g><path style="opacity:1" fill="#aed57b" d="M 105.5,68.5 C 106.458,68.9528 107.292,69.6195 108,70.5C 108.315,72.5856 108.815,74.5856 109.5,76.5C 108.738,78.2624 107.404,79.2624 105.5,79.5C 104.957,79.44 104.624,79.1067 104.5,78.5C 105.5,77.8333 106.5,77.1667 107.5,76.5C 105.604,75.5344 103.604,75.2011 101.5,75.5C 101.5,73.8333 101.5,72.1667 101.5,70.5C 102.743,73.3128 104.743,73.9795 107.5,72.5C 106.37,71.3777 105.703,70.0443 105.5,68.5 Z"/></g>
<g><path style="opacity:0.616" fill="#b8d68c" d="M 93.5,73.5 C 95.0269,73.427 96.0269,74.0937 96.5,75.5C 97.1098,76.391 97.4431,77.391 97.5,78.5C 95.9373,77.0552 94.604,75.3885 93.5,73.5 Z"/></g>
<g><path style="opacity:1" fill="#b2cf89" d="M 115.5,73.5 C 117.585,75.6845 118.585,78.3511 118.5,81.5C 116.415,79.3155 115.415,76.6489 115.5,73.5 Z"/></g>
<g><path style="opacity:1" fill="#8bc541" d="M 46.5,101.5 C 45.8333,102.5 45.1667,103.5 44.5,104.5C 43.9569,104.44 43.6236,104.107 43.5,103.5C 45.3302,101.095 45.9969,98.595 45.5,96C 43.99,91.47 42.3233,86.97 40.5,82.5C 40.6667,81.5 40.8333,80.5 41,79.5C 41.6667,80.8333 42.3333,80.8333 43,79.5C 43.7415,76.438 43.5748,73.438 42.5,70.5C 43.5,69.6667 44.5,68.8333 45.5,68C 44.3044,67.3457 44.3044,66.8457 45.5,66.5C 46.4989,78.1477 46.8322,89.8143 46.5,101.5 Z"/></g>
<g><path style="opacity:1" fill="#aacb7f" d="M 48.5,63.5 C 48.1694,84.6733 48.5027,105.673 49.5,126.5C 56.9818,127.492 64.6484,127.825 72.5,127.5C 72.3893,128.117 72.056,128.617 71.5,129C 65.5092,129.499 59.5092,129.666 53.5,129.5C 51.4214,129.029 49.4214,128.363 47.5,127.5C 47.1694,105.993 47.5027,84.6601 48.5,63.5 Z"/></g>
<g><path style="opacity:1" fill="#90c64b" d="M 110.5,67.5 C 111.473,70.135 113.14,72.135 115.5,73.5C 115.415,76.6489 116.415,79.3155 118.5,81.5C 118.5,82.8333 118.5,84.1667 118.5,85.5C 115.542,84.4589 112.542,84.4589 109.5,85.5C 109.03,88.3456 109.863,90.6789 112,92.5C 112.81,96.3575 112.643,100.024 111.5,103.5C 108.994,98.5346 107.828,93.2013 108,87.5C 107.329,86.7476 106.496,86.4142 105.5,86.5C 107.922,84.0596 107.922,81.7263 105.5,79.5C 107.404,79.2624 108.738,78.2624 109.5,76.5C 110.376,76.6309 111.043,76.2975 111.5,75.5C 110.24,72.9449 108.906,70.4449 107.5,68C 108.448,67.5172 109.448,67.3505 110.5,67.5 Z"/></g>
<g><path style="opacity:0.776" fill="#b9d795" d="M 97.5,78.5 C 99.3964,80.8368 100.73,83.5035 101.5,86.5C 101.5,88.5 101.5,90.5 101.5,92.5C 100.41,87.8816 99.0769,83.2149 97.5,78.5 Z"/></g>
<g><path style="opacity:0.725" fill="#bdd1a1" d="M 162.5,95.5 C 158.724,94.1752 154.557,93.5085 150,93.5C 145.443,93.5085 141.276,94.1752 137.5,95.5C 136.522,95.189 135.855,94.5223 135.5,93.5C 145.144,92.5016 154.81,92.1682 164.5,92.5C 164.715,94.1788 164.048,95.1788 162.5,95.5 Z"/></g>
<g><path style="opacity:0.761" fill="#a6c57b" d="M 162.5,95.5 C 154.167,95.5 145.833,95.5 137.5,95.5C 141.276,94.1752 145.443,93.5085 150,93.5C 154.557,93.5085 158.724,94.1752 162.5,95.5 Z"/></g>
<g><path style="opacity:1" fill="#a5c970" d="M 118.5,81.5 C 119.268,82.2625 119.768,83.2625 120,84.5C 120.796,91.9131 120.63,99.2465 119.5,106.5C 118.833,106.833 118.167,107.167 117.5,107.5C 118.43,100.223 118.764,92.8896 118.5,85.5C 118.5,84.1667 118.5,82.8333 118.5,81.5 Z"/></g>
<g><path style="opacity:1" fill="#8ec448" d="M 95.5,65.5 C 96.9778,65.238 98.3112,65.5713 99.5,66.5C 99.9943,68.0255 100.661,69.3588 101.5,70.5C 101.5,72.1667 101.5,73.8333 101.5,75.5C 103.604,75.2011 105.604,75.5344 107.5,76.5C 106.5,77.1667 105.5,77.8333 104.5,78.5C 104.624,79.1067 104.957,79.44 105.5,79.5C 107.922,81.7263 107.922,84.0596 105.5,86.5C 104.351,86.7911 103.684,87.6244 103.5,89C 103.731,94.2921 104.731,99.2921 106.5,104C 104.609,105.442 102.609,106.609 100.5,107.5C 102.628,100.481 102.961,93.4812 101.5,86.5C 100.73,83.5035 99.3964,80.8368 97.5,78.5C 97.4431,77.391 97.1098,76.391 96.5,75.5C 97.9778,75.762 99.3112,75.4287 100.5,74.5C 98.9635,71.3693 97.2968,68.3693 95.5,65.5 Z"/></g>
<g><path style="opacity:1" fill="#8bc542" d="M 118.5,85.5 C 118.764,92.8896 118.43,100.223 117.5,107.5C 117.326,109.861 116.993,112.194 116.5,114.5C 113.821,114.525 112.488,115.858 112.5,118.5C 110.955,119.23 110.122,120.563 110,122.5C 109.667,121.833 109.333,121.167 109,120.5C 108.667,121.833 108.333,123.167 108,124.5C 107.586,124.043 107.086,123.709 106.5,123.5C 104.999,124.752 103.332,125.752 101.5,126.5C 102.645,127.891 102.645,129.224 101.5,130.5C 99.4706,129.371 99.1373,129.871 100.5,132C 98.9262,132.699 97.5929,132.365 96.5,131C 97.3301,129.253 98.3301,127.587 99.5,126C 98.4196,124.545 98.4196,123.045 99.5,121.5C 101.306,120.794 103.139,121.127 105,122.5C 108.535,119.464 109.702,115.797 108.5,111.5C 110.213,110.695 111.879,109.695 113.5,108.5C 112.05,107.15 111.383,105.484 111.5,103.5C 112.643,100.024 112.81,96.3575 112,92.5C 109.863,90.6789 109.03,88.3456 109.5,85.5C 112.542,84.4589 115.542,84.4589 118.5,85.5 Z"/></g>
<g><path style="opacity:0.097" fill="#e7fdcb" d="M 50.5,62.5 C 49.5118,83.7579 49.1785,105.091 49.5,126.5C 48.5027,105.673 48.1694,84.6733 48.5,63.5C 48.8417,62.6618 49.5084,62.3284 50.5,62.5 Z"/></g>
<g><path style="opacity:1" fill="#acce7f" d="M 101.5,86.5 C 102.961,93.4812 102.628,100.481 100.5,107.5C 99.7216,110.539 98.3883,113.206 96.5,115.5C 93.7186,119.39 90.052,122.057 85.5,123.5C 96.3239,116.19 101.657,105.857 101.5,92.5C 101.5,90.5 101.5,88.5 101.5,86.5 Z"/></g>
<g><path style="opacity:1" fill="#8cc742" d="M 105.5,86.5 C 106.496,86.4142 107.329,86.7476 108,87.5C 107.828,93.2013 108.994,98.5346 111.5,103.5C 111.383,105.484 112.05,107.15 113.5,108.5C 111.879,109.695 110.213,110.695 108.5,111.5C 106.167,111.5 103.833,111.5 101.5,111.5C 102.18,115.791 100.514,118.457 96.5,119.5C 96.5,118.167 96.5,116.833 96.5,115.5C 98.3883,113.206 99.7216,110.539 100.5,107.5C 102.609,106.609 104.609,105.442 106.5,104C 104.731,99.2921 103.731,94.2921 103.5,89C 103.684,87.6244 104.351,86.7911 105.5,86.5 Z"/></g>
<g><path style="opacity:0.878" fill="#bcd89c" d="M 119.5,106.5 C 119.267,109.542 118.267,112.208 116.5,114.5C 116.993,112.194 117.326,109.861 117.5,107.5C 118.167,107.167 118.833,106.833 119.5,106.5 Z"/></g>
<g><path style="opacity:1" fill="#88c53d" d="M 32.5,59.5 C 34.7446,60.8278 35.0779,62.6612 33.5,65C 34.5822,66.3297 35.2488,67.8297 35.5,69.5C 35.6732,78.2353 35.0066,86.902 33.5,95.5C 34.0463,97.1347 34.3796,98.8014 34.5,100.5C 33.6014,101.994 33.9347,103.494 35.5,105C 34.8333,105.333 34.1667,105.667 33.5,106C 35.2194,109.957 35.886,114.124 35.5,118.5C 35.5,118.833 35.5,119.167 35.5,119.5C 35.5,119.833 35.5,120.167 35.5,120.5C 34.2028,122.371 33.2028,124.371 32.5,126.5C 32.5,104.167 32.5,81.8333 32.5,59.5 Z"/></g>
<g><path style="opacity:1" fill="#8bc641" d="M 34.5,100.5 C 35.7859,103.117 37.4525,105.45 39.5,107.5C 41.2638,104.823 42.4304,105.156 43,108.5C 43.4101,107.099 43.9101,105.766 44.5,104.5C 45.1667,103.5 45.8333,102.5 46.5,101.5C 46.5,108.5 46.5,115.5 46.5,122.5C 45.3995,120.723 44.5662,118.723 44,116.5C 42.6861,115.687 41.5195,114.687 40.5,113.5C 38.9201,115.409 37.2535,117.075 35.5,118.5C 35.886,114.124 35.2194,109.957 33.5,106C 34.1667,105.667 34.8333,105.333 35.5,105C 33.9347,103.494 33.6014,101.994 34.5,100.5 Z"/></g>
<g><path style="opacity:1" fill="#aacf77" d="M 116.5,114.5 C 115.59,117.992 113.924,120.992 111.5,123.5C 112.038,121.883 112.371,120.216 112.5,118.5C 112.488,115.858 113.821,114.525 116.5,114.5 Z"/></g>
<g><path style="opacity:1" fill="#9acd59" d="M 45.5,132.5 C 44.325,132.281 43.325,132.614 42.5,133.5C 43.5498,134.429 43.5498,135.095 42.5,135.5C 41.7757,131.305 39.4424,129.972 35.5,131.5C 35.9274,127.671 35.9274,124.004 35.5,120.5C 35.5,120.167 35.5,119.833 35.5,119.5C 37.5753,119.302 39.5753,119.135 41.5,119C 41.1667,119.333 40.8333,119.667 40.5,120C 44.7384,122.609 45.7384,125.943 43.5,130C 44.0556,131.011 44.7222,131.844 45.5,132.5 Z"/></g>
<g><path style="opacity:1" fill="#8bc543" d="M 46.5,122.5 C 46.2155,124.415 46.5489,126.081 47.5,127.5C 49.4214,128.363 51.4214,129.029 53.5,129.5C 60.0119,130.167 66.6786,130.833 73.5,131.5C 73.1543,132.696 72.6543,132.696 72,131.5C 71.5357,132.094 71.369,132.761 71.5,133.5C 68.1401,133.384 64.8067,133.051 61.5,132.5C 55.9997,132.75 50.6664,132.75 45.5,132.5C 44.7222,131.844 44.0556,131.011 43.5,130C 45.7384,125.943 44.7384,122.609 40.5,120C 40.8333,119.667 41.1667,119.333 41.5,119C 39.5753,119.135 37.5753,119.302 35.5,119.5C 35.5,119.167 35.5,118.833 35.5,118.5C 37.2535,117.075 38.9201,115.409 40.5,113.5C 41.5195,114.687 42.6861,115.687 44,116.5C 44.5662,118.723 45.3995,120.723 46.5,122.5 Z"/></g>
<g><path style="opacity:1" fill="#8dc446" d="M 108.5,111.5 C 109.702,115.797 108.535,119.464 105,122.5C 103.139,121.127 101.306,120.794 99.5,121.5C 98.7494,120.427 97.7494,120.26 96.5,121C 95.8333,122.667 95.1667,124.333 94.5,126C 89.7847,126.062 85.9514,127.895 83,131.5C 82.3333,130.833 81.6667,130.167 81,129.5C 79.5557,131.155 77.7224,131.822 75.5,131.5C 75.392,135.666 74.0587,136.333 71.5,133.5C 71.369,132.761 71.5357,132.094 72,131.5C 72.6543,132.696 73.1543,132.696 73.5,131.5C 66.6786,130.833 60.0119,130.167 53.5,129.5C 59.5092,129.666 65.5092,129.499 71.5,129C 72.056,128.617 72.3893,128.117 72.5,127.5C 73.1667,127.5 73.8333,127.5 74.5,127.5C 76.1667,127.5 77.8333,127.5 79.5,127.5C 81.9663,126.702 83.9663,125.369 85.5,123.5C 90.052,122.057 93.7186,119.39 96.5,115.5C 96.5,116.833 96.5,118.167 96.5,119.5C 100.514,118.457 102.18,115.791 101.5,111.5C 103.833,111.5 106.167,111.5 108.5,111.5 Z"/></g>
<g><path style="opacity:0.686" fill="#c6d9aa" d="M 80.5,125.5 C 80.1667,126.167 79.8333,126.833 79.5,127.5C 77.8333,127.5 76.1667,127.5 74.5,127.5C 76.3024,126.542 78.3024,125.875 80.5,125.5 Z"/></g>
<g><path style="opacity:1" fill="#a6cb75" d="M 85.5,123.5 C 83.9663,125.369 81.9663,126.702 79.5,127.5C 79.8333,126.833 80.1667,126.167 80.5,125.5C 82.0495,124.559 83.7162,123.893 85.5,123.5 Z"/></g>
<g><path style="opacity:1" fill="#bbdc90" d="M 110.5,124.5 C 108.833,128.167 106.167,130.833 102.5,132.5C 103.942,131.18 104.608,129.514 104.5,127.5C 106.947,127.385 108.947,126.385 110.5,124.5 Z"/></g>
<g><path style="opacity:1" fill="#bde392" d="M 42.5,135.5 C 42.8333,136.167 43.1667,136.833 43.5,137.5C 43.44,138.043 43.1067,138.376 42.5,138.5C 41.332,135.531 39.9987,135.198 38.5,137.5C 36.0769,136.288 35.0769,134.288 35.5,131.5C 39.4424,129.972 41.7757,131.305 42.5,135.5 Z"/></g>
<g><path style="opacity:1" fill="#95cb51" d="M 112.5,118.5 C 112.371,120.216 112.038,121.883 111.5,123.5C 111.5,124.167 111.167,124.5 110.5,124.5C 108.947,126.385 106.947,127.385 104.5,127.5C 104.608,129.514 103.942,131.18 102.5,132.5C 102.5,133.167 102.167,133.5 101.5,133.5C 98.9143,134.01 96.581,135.01 94.5,136.5C 94.0757,130.223 91.0757,128.389 85.5,131C 86.1667,131.333 86.8333,131.667 87.5,132C 87.5,133 87.5,134 87.5,135C 85.5211,135.684 83.8544,135.184 82.5,133.5C 81.5723,135.335 80.4056,135.668 79,134.5C 78.5017,136.544 77.335,137.878 75.5,138.5C 74.5041,138.586 73.6708,138.252 73,137.5C 70.2891,140.165 69.2891,139.498 70,135.5C 72.0932,136.234 72.5932,135.567 71.5,133.5C 74.0587,136.333 75.392,135.666 75.5,131.5C 77.7224,131.822 79.5557,131.155 81,129.5C 81.6667,130.167 82.3333,130.833 83,131.5C 85.9514,127.895 89.7847,126.062 94.5,126C 95.1667,124.333 95.8333,122.667 96.5,121C 97.7494,120.26 98.7494,120.427 99.5,121.5C 98.4196,123.045 98.4196,124.545 99.5,126C 98.3301,127.587 97.3301,129.253 96.5,131C 97.5929,132.365 98.9262,132.699 100.5,132C 99.1373,129.871 99.4706,129.371 101.5,130.5C 102.645,129.224 102.645,127.891 101.5,126.5C 103.332,125.752 104.999,124.752 106.5,123.5C 107.086,123.709 107.586,124.043 108,124.5C 108.333,123.167 108.667,121.833 109,120.5C 109.333,121.167 109.667,121.833 110,122.5C 110.122,120.563 110.955,119.23 112.5,118.5 Z"/></g>
<g><path style="opacity:1" fill="#89c540" d="M 94.5,136.5 C 88.0764,138.334 81.7431,140.334 75.5,142.5C 69.5,142.5 63.5,142.5 57.5,142.5C 63.5212,141.226 69.5212,139.893 75.5,138.5C 77.335,137.878 78.5017,136.544 79,134.5C 80.4056,135.668 81.5723,135.335 82.5,133.5C 83.8544,135.184 85.5211,135.684 87.5,135C 87.5,134 87.5,133 87.5,132C 86.8333,131.667 86.1667,131.333 85.5,131C 91.0757,128.389 94.0757,130.223 94.5,136.5 Z"/></g>
<g><path style="opacity:1" fill="#8dc546" d="M 35.5,120.5 C 35.9274,124.004 35.9274,127.671 35.5,131.5C 35.0769,134.288 36.0769,136.288 38.5,137.5C 39.9987,135.198 41.332,135.531 42.5,138.5C 43.1067,138.376 43.44,138.043 43.5,137.5C 44.5,137.5 45.5,137.5 46.5,137.5C 46.5,138.167 46.8333,138.5 47.5,138.5C 52.4513,138.92 57.2846,139.253 62,139.5C 65.4459,136.712 65.2792,134.379 61.5,132.5C 64.8067,133.051 68.1401,133.384 71.5,133.5C 72.5932,135.567 72.0932,136.234 70,135.5C 69.2891,139.498 70.2891,140.165 73,137.5C 73.6708,138.252 74.5041,138.586 75.5,138.5C 69.5212,139.893 63.5212,141.226 57.5,142.5C 49.1667,142.5 40.8333,142.5 32.5,142.5C 32.5,137.167 32.5,131.833 32.5,126.5C 33.2028,124.371 34.2028,122.371 35.5,120.5 Z"/></g>
<g><path style="opacity:1" fill="#abd377" d="M 45.5,132.5 C 50.6664,132.75 55.9997,132.75 61.5,132.5C 65.2792,134.379 65.4459,136.712 62,139.5C 57.2846,139.253 52.4513,138.92 47.5,138.5C 50.9,138.968 53.2333,137.635 54.5,134.5C 52.1143,134.324 49.4476,134.324 46.5,134.5C 46.5,135.5 46.5,136.5 46.5,137.5C 45.5,137.5 44.5,137.5 43.5,137.5C 43.1667,136.833 42.8333,136.167 42.5,135.5C 43.5498,135.095 43.5498,134.429 42.5,133.5C 43.325,132.614 44.325,132.281 45.5,132.5 Z"/></g>
<g><path style="opacity:1" fill="#c3e29d" d="M 47.5,138.5 C 46.8333,138.5 46.5,138.167 46.5,137.5C 46.5,136.5 46.5,135.5 46.5,134.5C 49.4476,134.324 52.1143,134.324 54.5,134.5C 53.2333,137.635 50.9,138.968 47.5,138.5 Z"/></g>
<g><path style="opacity:1" fill="#9fc96b" d="M 101.5,133.5 C 98.1651,136.839 94.1651,139.172 89.5,140.5C 87.1016,140.259 85.1016,140.926 83.5,142.5C 81.6208,143.341 79.6208,143.675 77.5,143.5C 76.5084,143.672 75.8417,143.338 75.5,142.5C 81.7431,140.334 88.0764,138.334 94.5,136.5C 96.581,135.01 98.9143,134.01 101.5,133.5 Z"/></g>
<g><path style="opacity:0.247" fill="#cee8b1" d="M 89.5,140.5 C 87.7857,141.738 85.7857,142.405 83.5,142.5C 85.1016,140.926 87.1016,140.259 89.5,140.5 Z"/></g>
<g><path style="opacity:0.717" fill="#abd479" d="M 174.5,157.5 C 143.004,158.498 111.338,158.832 79.5,158.5C 58.1667,158.5 36.8333,158.5 15.5,158.5C 15.5,158.167 15.5,157.833 15.5,157.5C 68.5976,157.497 121.598,157.497 174.5,157.5 Z"/></g>
<g><path style="opacity:1" fill="#8cc447" d="M 15.5,158.5 C 36.8333,158.5 58.1667,158.5 79.5,158.5C 111.329,159.498 143.329,159.832 175.5,159.5C 122.336,160.499 69.0026,160.832 15.5,160.5C 15.5,159.833 15.5,159.167 15.5,158.5 Z"/></g>
<g><path style="opacity:1" fill="#8bc146" d="M 174.5,157.5 C 174.833,157.5 175.167,157.5 175.5,157.5C 175.833,157.5 176.167,157.5 176.5,157.5C 176.167,158.167 175.833,158.833 175.5,159.5C 143.329,159.832 111.329,159.498 79.5,158.5C 111.338,158.832 143.004,158.498 174.5,157.5 Z"/></g>
<g><path style="opacity:1" fill="#a4cb6f" d="M 179.5,154.5 C 179.833,154.5 180.167,154.5 180.5,154.5C 180.5,157.167 180.5,159.833 180.5,162.5C 124.833,162.5 69.1667,162.5 13.5,162.5C 12.8333,162.5 12.5,162.167 12.5,161.5C 12.8333,161.5 13.1667,161.5 13.5,161.5C 14.1667,161.5 14.8333,161.5 15.5,161.5C 70.1667,161.5 124.833,161.5 179.5,161.5C 179.5,159.167 179.5,156.833 179.5,154.5 Z"/></g>
<g><path style="opacity:0.281" fill="#d0ebad" d="M 180.5,27.5 C 180.833,27.5 181.167,27.5 181.5,27.5C 181.5,72.8333 181.5,118.167 181.5,163.5C 125.5,163.5 69.5,163.5 13.5,163.5C 13.5,163.167 13.5,162.833 13.5,162.5C 69.1667,162.5 124.833,162.5 180.5,162.5C 180.5,159.833 180.5,157.167 180.5,154.5C 180.5,112.167 180.5,69.8333 180.5,27.5 Z"/></g>
</svg>
